<svg xmlns="http://www.w3.org/2000/svg" viewBox="0 18.25 176.5500030517578 34.25" data-asc="1.05" width="176.5500030517578" height="34.25"><defs/><g fill="#000000"><g transform="translate(0, 0)"><path d="M0 52.05L0 20.40L23.50 20.40L23.50 26.90L8 26.90L8 32.90L21.45 32.90L21.45 39.40L8 39.40L8 45.55L23.50 45.55L23.50 52.05L0 52.05ZM35.50 52.50Q30.90 52.50 28.95 50.05Q27 47.60 27 43.05L27 27.70L35 27.70L35.05 41.10Q35.05 43.35 35.85 44.27Q36.65 45.20 39.10 45.20Q41.45 45.20 42.28 44.38Q43.10 43.55 43.15 41.55L43.15 27.70L51.15 27.70L51.15 52.05L43.55 52.05L43.15 49.30L43 49.30Q42.35 50.75 40.35 51.63Q38.35 52.50 35.50 52.50ZM65.15 52.05L57.15 52.05L57.15 27.70L64.75 27.70L65.15 32.15L65.30 32.15Q66 29.90 67.80 28.67Q69.60 27.45 72.80 27.45Q77.15 27.45 79.23 29.90Q81.30 32.35 81.30 38.40L81.30 52.05L73.30 52.05L73.25 39.95Q73.25 37.15 72.40 35.95Q71.55 34.75 69.20 34.75Q67 34.75 66.10 35.83Q65.20 36.90 65.15 39.50L65.15 52.05ZM85.05 40.05Q85.05 33.35 87.90 30.40Q90.75 27.45 97.55 27.45Q102.10 27.45 104.85 28.75Q107.60 30.05 108.83 32.83Q110.05 35.60 110.05 40.05Q110.05 44.45 108.83 47.20Q107.60 49.95 104.85 51.23Q102.10 52.50 97.55 52.50Q90.75 52.50 87.90 49.58Q85.05 46.65 85.05 40.05M97.55 45.65Q100.45 45.65 101.48 44.38Q102.50 43.10 102.50 39.90Q102.50 36.85 101.48 35.52Q100.45 34.20 97.55 34.20Q94.75 34.20 93.68 35.52Q92.60 36.85 92.60 39.90Q92.60 43.10 93.68 44.38Q94.75 45.65 97.55 45.65ZM137.25 27.85L129.30 52.05L119.30 52.05L111.80 27.80L111.80 27.70L120.80 27.70Q121.85 31.60 122.78 36.15Q123.70 40.70 124.45 44.90L124.65 44.90Q125.40 40.70 126.33 36.15Q127.25 31.60 128.30 27.70L137.25 27.70L137.25 27.85ZM148.30 18.65Q148.45 20.45 148.45 21.65Q148.45 22.35 148.43 23.07Q148.40 23.80 148.30 24.70Q147.25 24.90 146.25 25Q145.25 25.10 144.25 25.10Q143.30 25.10 142.32 25Q141.35 24.90 140.35 24.70Q140.25 23.85 140.20 23.13Q140.15 22.40 140.15 21.70Q140.15 21.05 140.20 20.30Q140.25 19.55 140.35 18.65Q141.35 18.40 142.38 18.32Q143.40 18.25 144.40 18.25Q145.35 18.25 146.32 18.32Q147.30 18.40 148.30 18.65M148.30 52.05L140.30 52.05L140.30 27.70L148.30 27.70L148.30 52.05ZM163.10 27.45Q167.90 27.45 170.85 28.45Q173.80 29.45 175.18 32.13Q176.55 34.80 176.55 39.85L176.55 52.05L169.30 52.05L169.05 49.75L168.90 49.75Q167.95 51 165.95 51.75Q163.95 52.50 160.75 52.50Q152.10 52.50 152.10 44.40Q152.10 40.95 154.38 38.98Q156.65 37 161.55 37L168.95 37Q168.60 34.90 167.15 34.17Q165.70 33.45 162.20 33.45Q160 33.45 157.88 33.77Q155.75 34.10 154.15 34.50L154 34.40L154.05 28.60Q155.05 28.30 156.60 28.02Q158.15 27.75 159.88 27.60Q161.60 27.45 163.10 27.45M162.80 46.60Q165.90 46.60 167.45 45.83Q169 45.05 169.05 43.35L169.05 42.10L163.40 42.10Q161.20 42.10 160.32 42.73Q159.45 43.35 159.45 44.40Q159.45 45.65 160.35 46.13Q161.25 46.60 162.80 46.60Z"/></g></g></svg>